<?xml version="1.0" encoding="UTF-8"?>
<svg id="Layer_1" xmlns="http://www.w3.org/2000/svg" version="1.1" viewBox="0 0 557.28 500">
  <!-- Generator: Adobe Illustrator 29.0.1, SVG Export Plug-In . SVG Version: 2.1.0 Build 192)  -->
  <defs>
    <style>
      .st0 {
        fill: #6a6b99;
      }

      .st1 {
        fill: none;
        stroke: #000;
        stroke-miterlimit: 10;
        stroke-width: 27.58px;
      }

      .st2 {
        fill: #fff;
      }

      .st3 {
        fill: #f89e1e;
      }
    </style>
  </defs>
  <g>
    <path class="st3" d="M467.71,312.06l-36.3-.78c.02-1.13.04-2.26.04-3.4,0-84.55-68.79-153.33-153.33-153.33s-153.33,68.78-153.33,153.33h-36.31c0-104.57,85.07-189.64,189.64-189.64s189.64,85.07,189.64,189.64c0,1.4-.02,2.79-.05,4.18Z"/>
    <path class="st3" d="M29.89,164.28l-.55.96c-4.86,8.42-1.98,19.18,6.44,24.04l30.32,17.51c8.46,4.88,19.22,1.91,24.1-6.54.13-.23.27-.47.4-.7,4.92-8.46,2.13-19.3-6.35-24.2l-30.32-17.51c-8.42-4.86-19.18-1.98-24.04,6.44Z"/>
    <path class="st3" d="M134.87,59.71l-.96.55c-8.42,4.86-11.3,15.62-6.44,24.04l17.51,30.32c4.9,8.48,15.74,11.27,24.2,6.35.23-.14.46-.27.7-.4,8.46-4.88,11.43-15.64,6.54-24.1l-17.51-30.32c-4.86-8.42-15.62-11.3-24.04-6.44Z"/>
    <path class="st3" d="M295.66,74.2v-34.96c0-9.72-7.88-17.6-17.6-17.6h-1.11c-9.72,0-17.6,7.88-17.6,17.6v34.96c0,9.78,7.97,17.61,17.75,17.6.13,0,.27,0,.4,0s.27,0,.4,0c9.78.02,17.75-7.82,17.75-17.6Z"/>
    <path class="st3" d="M421.11,60.26l-.96-.55c-8.42-4.86-19.18-1.98-24.04,6.44l-17.51,30.32c-4.88,8.46-1.91,19.22,6.54,24.1.23.13.47.27.7.4,8.46,4.92,19.3,2.13,24.2-6.35l17.51-30.33c4.86-8.42,1.98-19.18-6.44-24.04Z"/>
    <path class="st3" d="M525.68,165.24l-.55-.96c-4.86-8.42-15.62-11.3-24.04-6.44l-30.33,17.51c-8.48,4.9-11.27,15.74-6.35,24.2.14.23.27.46.4.7,4.88,8.46,15.64,11.43,24.1,6.54l30.32-17.51c8.42-4.86,11.3-15.62,6.44-24.04Z"/>
  </g>
  <path class="st1" d="M-261.36,0"/>
  <path class="st0" d="M535.1,273.53c-23.47,0-35.81,12.09-44.83,20.92-7.66,7.5-11.1,10.55-19.42,10.55s-11.76-3.04-19.42-10.55c-9.01-8.83-21.36-20.92-44.83-20.92s-35.81,12.09-44.82,20.92c-7.66,7.5-11.1,10.55-19.42,10.55s-11.76-3.04-19.42-10.55c-9.01-8.83-21.35-20.92-44.82-20.92s-35.81,12.09-44.82,20.92c-7.66,7.5-11.1,10.55-19.42,10.55s-11.76-3.04-19.42-10.55c-9.01-8.83-21.35-20.92-44.82-20.92s-35.81,12.09-44.82,20.92c-7.66,7.5-11.1,10.55-19.42,10.55s-11.76-3.04-19.42-10.55c-9.01-8.83-21.35-20.92-44.82-20.92v36.31c.18,0,.36,0,.54.01v16.36c0,80.52,65.51,146.03,146.03,146.03h220.82c80.52,0,146.03-65.51,146.03-146.03v-16.36c.18,0,.35-.01.54-.01v-36.31Z"/>
  <g>
    <path class="st2" d="M130.87,349.54c0,4.11-1.16,7.33-3.49,9.65-2.32,2.33-5.1,3.93-8.33,4.81-3.23.88-6.36,1.32-9.4,1.32h-8.22v15.49h-7.56v-46.32h17.62c3.82,0,7.12.39,9.91,1.17,2.79.78,5.06,2.28,6.83,4.48s2.64,5.33,2.64,9.4ZM123.31,350.13c0-2.15-.39-3.9-1.17-5.25-.78-1.34-1.96-2.34-3.52-2.97-1.57-.64-3.57-.93-6.02-.88l-11.08.07v18.13h11.23c2.35,0,4.31-.34,5.87-1.03,1.57-.68,2.74-1.69,3.52-3.01.78-1.32,1.17-3.01,1.17-5.07ZM115.3,362.75c.59,0,1.16.01,1.73.04.56.03,1.14.06,1.72.11,2.74-.05,4.84.33,6.31,1.14,1.47.81,2.7,2.47,3.71,4.99,1,2.52,1.7,6.45,2.09,11.78h-7.93c-.05-.68-.09-1.33-.11-1.95-.03-.61-.04-1.21-.04-1.8-.25-3.33-.64-5.75-1.17-7.27-.54-1.52-1.71-2.64-3.52-3.38-1.81-.73-4.7-1.1-8.66-1.1l5.87-2.57Z"/>
    <path class="st2" d="M139.09,334.57h7.71v46.24h-7.71v-46.24Z"/>
    <path class="st2" d="M171.53,380.81l-17.32-46.32,8.44.07,13.36,37.43c.1.34.19.66.29.95.1.29.2.61.29.96.1.29.19.59.29.88.1.29.19.61.29.95h-1.32c.1-.34.2-.66.29-.95.1-.29.22-.59.37-.88.1-.34.21-.66.33-.96.12-.29.21-.63.26-1.03l13.36-37.44h8.29l-17.47,46.32h-9.76Z"/>
    <path class="st2" d="M213.88,353.36h19.6v6.31h-19.67v14.17l27.01-.07v7.05h-34.57v-46.24h34.57v6.97h-26.94v11.82Z"/>
    <path class="st2" d="M286.99,349.54c0,4.11-1.16,7.33-3.49,9.65-2.33,2.33-5.1,3.93-8.33,4.81-3.23.88-6.36,1.32-9.4,1.32h-8.22v15.49h-7.56v-46.32h17.62c3.82,0,7.12.39,9.91,1.17,2.79.78,5.06,2.28,6.83,4.48s2.64,5.33,2.64,9.4ZM279.43,350.13c0-2.15-.39-3.9-1.17-5.25-.78-1.34-1.96-2.34-3.52-2.97-1.57-.64-3.57-.93-6.02-.88l-11.08.07v18.13h11.23c2.35,0,4.31-.34,5.87-1.03,1.57-.68,2.74-1.69,3.52-3.01.78-1.32,1.17-3.01,1.17-5.07ZM271.43,362.75c.59,0,1.16.01,1.73.04.56.03,1.14.06,1.72.11,2.74-.05,4.84.33,6.31,1.14s2.7,2.47,3.71,4.99c1,2.52,1.7,6.45,2.09,11.78h-7.93c-.05-.68-.09-1.33-.11-1.95-.03-.61-.04-1.21-.04-1.8-.25-3.33-.64-5.75-1.17-7.27-.54-1.52-1.71-2.64-3.52-3.38-1.81-.73-4.7-1.1-8.66-1.1l5.87-2.57Z"/>
    <path class="st2" d="M358.19,360.55c-.25,4.94-1.39,8.98-3.45,12.11-2.05,3.13-4.67,5.39-7.85,6.79-3.18,1.4-6.73,2.09-10.64,2.09-4.16,0-7.9-.78-11.23-2.35-3.33-1.57-5.98-4.11-7.96-7.63-1.98-3.52-2.97-8.15-2.97-13.87s.99-10.37,2.97-13.95c1.98-3.57,4.64-6.17,7.96-7.78,3.33-1.62,7.07-2.42,11.23-2.42,3.67,0,7.06.65,10.17,1.95,3.11,1.3,5.7,3.37,7.78,6.2s3.39,6.48,3.93,10.94h-8c-.05-.39-.1-.75-.15-1.06-.05-.32-.12-.65-.22-.99-.98-3.62-2.64-6.2-4.99-7.74-2.35-1.54-5.26-2.31-8.74-2.31-2.69,0-5.09.53-7.19,1.58-2.1,1.05-3.79,2.84-5.06,5.36-1.27,2.52-1.91,5.93-1.91,10.24s.65,7.7,1.95,10.17c1.3,2.47,3.01,4.18,5.14,5.14s4.59,1.43,7.38,1.43c2.5,0,4.75-.4,6.75-1.21,2.01-.81,3.67-2.25,4.99-4.33,1.32-2.08,2.13-4.86,2.42-8.33h7.71Z"/>
    <path class="st2" d="M365.97,334.57h7.71v46.24h-7.71v-46.24Z"/>
    <path class="st2" d="M403.62,380.81h-7.56v-39.27h-14.75v-6.97h37.14v6.97h-14.83v39.27Z"/>
    <path class="st2" d="M447.81,380.81h-7.78v-17.03l-16-29.21h8.96l10.5,19.89c.1.29.22.58.37.84.15.27.29.55.44.84.15.34.29.66.44.95s.29.61.44.95l-2.42-.07c.15-.24.32-.54.51-.88.19-.34.37-.68.51-1.03.1-.29.23-.59.4-.88.17-.29.31-.59.4-.88l11.16-19.75h8.88l-16.81,29.21v17.03Z"/>
    <path class="st2" d="M185.92,412c.15-1.91-.22-3.57-1.1-4.99-.88-1.42-2.17-2.51-3.85-3.27-1.69-.76-3.71-1.14-6.06-1.14-2.15,0-4.1.32-5.84.95-1.74.64-3.08,1.52-4.04,2.64-.95,1.13-1.43,2.47-1.43,4.04.05,1.62.65,2.91,1.8,3.89,1.15.98,2.54,1.68,4.18,2.09,1.64.42,3.9.89,6.79,1.43,3.72.59,6.72,1.22,8.99,1.91,2.28.69,4.23,1.86,5.87,3.52,1.64,1.66,2.46,4.01,2.46,7.05,0,3.43-.99,6.2-2.97,8.33-1.98,2.13-4.39,3.66-7.23,4.59-2.84.93-5.75,1.39-8.73,1.39-3.28,0-6.47-.55-9.58-1.65-3.11-1.1-5.58-2.83-7.41-5.17s-2.58-5.33-2.24-8.96h7.63c-.2,1.81.21,3.45,1.21,4.92,1,1.47,2.47,2.62,4.4,3.45,1.93.83,4.07,1.25,6.42,1.25,2.1,0,3.99-.32,5.65-.95,1.66-.64,2.98-1.52,3.96-2.64.98-1.12,1.47-2.4,1.47-3.82.05-1.61-.47-2.9-1.54-3.85-1.08-.95-2.44-1.68-4.07-2.17-1.64-.49-3.93-.98-6.86-1.47-3.72-.63-6.75-1.3-9.1-1.98-2.35-.68-4.36-1.87-6.02-3.56-1.66-1.69-2.52-4.02-2.57-7.01-.05-3.03.72-5.64,2.31-7.82,1.59-2.18,3.84-3.83,6.75-4.95,2.91-1.12,6.25-1.69,10.02-1.69,3.18,0,6.12.44,8.81,1.32,2.69.88,4.93,2.48,6.72,4.81,1.79,2.33,2.63,5.49,2.53,9.51h-7.34Z"/>
    <path class="st2" d="M244.12,420.59c0,5.73-1,10.35-3.01,13.87-2.01,3.52-4.7,6.08-8.07,7.67-3.38,1.59-7.15,2.39-11.3,2.39s-7.9-.78-11.23-2.35c-3.33-1.57-5.98-4.11-7.96-7.63s-2.97-8.15-2.97-13.87.99-10.37,2.97-13.95c1.98-3.57,4.64-6.17,7.96-7.78,3.33-1.62,7.07-2.42,11.23-2.42s7.91.81,11.27,2.42c3.35,1.61,6.04,4.21,8.07,7.78,2.03,3.57,3.05,8.2,3.05,13.87ZM236.27,420.59c0-4.31-.65-7.73-1.95-10.28-1.3-2.54-3.03-4.32-5.21-5.32-2.18-1-4.66-1.5-7.45-1.5s-5.24.51-7.34,1.54c-2.1,1.03-3.79,2.83-5.06,5.4-1.27,2.57-1.91,5.98-1.91,10.24s.64,7.65,1.91,10.17c1.27,2.52,2.98,4.25,5.14,5.17,2.15.93,4.62,1.39,7.41,1.39s5.25-.48,7.38-1.43,3.84-2.68,5.14-5.17c1.3-2.5,1.95-5.9,1.95-10.2Z"/>
    <path class="st2" d="M294.55,423.53c-.25,4.94-1.39,8.98-3.45,12.11-2.05,3.13-4.67,5.39-7.85,6.79-3.18,1.4-6.73,2.09-10.64,2.09-4.16,0-7.9-.78-11.23-2.35-3.33-1.57-5.98-4.11-7.96-7.63s-2.97-8.15-2.97-13.87.99-10.37,2.97-13.95c1.98-3.57,4.64-6.17,7.96-7.78,3.33-1.62,7.07-2.42,11.23-2.42,3.67,0,7.06.65,10.17,1.95,3.11,1.3,5.7,3.37,7.78,6.2s3.39,6.48,3.93,10.94h-8c-.05-.39-.1-.75-.15-1.06-.05-.32-.12-.65-.22-.99-.98-3.62-2.64-6.2-4.99-7.74-2.35-1.54-5.26-2.31-8.73-2.31-2.69,0-5.09.53-7.19,1.58-2.1,1.05-3.79,2.84-5.06,5.36-1.27,2.52-1.91,5.93-1.91,10.24s.65,7.7,1.95,10.17c1.3,2.47,3.01,4.18,5.14,5.14s4.59,1.43,7.38,1.43c2.5,0,4.75-.4,6.75-1.21,2.01-.81,3.67-2.25,4.99-4.33,1.32-2.08,2.13-4.86,2.42-8.33h7.71Z"/>
    <path class="st2" d="M302.33,397.54h7.71v46.24h-7.71v-46.24Z"/>
    <path class="st2" d="M317.45,443.78l17.69-46.24h9.47l17.4,46.24h-8.22l-13.51-37.95c-.1-.29-.21-.6-.33-.92-.12-.32-.23-.65-.33-.99-.15-.34-.28-.68-.4-1.03-.12-.34-.23-.64-.33-.88h1.61c-.1.29-.2.6-.29.92-.1.32-.22.62-.37.92-.1.34-.2.7-.29,1.06-.1.37-.22.7-.37.99l-13.43,37.88h-8.29ZM339.33,427.93v6.68h-13.65l2.72-6.68h10.94ZM339.33,434.61v-6.68h10.94l2.72,6.68h-13.65Z"/>
    <path class="st2" d="M369.49,397.54h7.63l-.07,39.12h23.78v7.12h-31.34v-46.24Z"/>
  </g>
</svg>